<?xml version="1.0" encoding="utf-8"?>
<!-- I got the icons from here: http://raphaeljs.com/icons/#? -->
<!DOCTYPE svg PUBLIC "-//W3C//DTD SVG 1.1//EN" "http://www.w3.org/Graphics/SVG/1.1/DTD/svg11.dtd">
<svg version="1.1" id="Layer_1" xmlns="http://www.w3.org/2000/svg" xmlns:xlink="http://www.w3.org/1999/xlink" x="0px" y="0px"
     width="32px" height="32px" viewBox="0 0 32 32" enable-background="new 0 0 32 32" xml:space="preserve">
<g>
    <path d="M16,1.466C7.973,1.466,1.466,7.973,1.466,16c0,8.027,6.507,14.534,14.534,14.534c8.027,0,14.534-6.507,14.534-14.534C30.534,7.973,24.027,1.466,16,1.466z M17.328,24.371h-2.707v-2.596h2.707V24.371zM17.328,19.003v0.858h-2.707v-1.057c0-3.19,3.63-3.696,3.63-5.963c0-1.034-0.924-1.826-2.134-1.826c-1.254,0-2.354,0.924-2.354,0.924l-1.541-1.915c0,0,1.519-1.584,4.137-1.584c2.487,0,4.796,1.54,4.796,4.136C21.156,16.208,17.328,16.627,17.328,19.003z"/>
    <!-- Not necessary for non-Adobe generated stuff -->
    <!-- <polygon points="192,336 352,256 192,176    "/> -->
</g>
</svg>
